name C:\Users\u0101727\Documents\MyRepositories\upper-imu-dc\Results\main_tracking\Case_45\FLX01_linearAccelerations_bodyFrame.mot
datacolumns 4
datarows 129
range 0.50600000 1.27400000
endheader 
time	radius_imu_x	radius_imu_y	radius_imu_z	
          0.50600000	         -0.32390306	         10.19202382	         -1.56942196	
          0.51200000	         -0.23243209	         10.21584696	         -1.54252007	
          0.51800000	         -0.19117427	         10.21926255	         -1.54264321	
          0.52400000	         -0.16754005	         10.22911900	         -1.53683986	
          0.53000000	         -0.15129440	         10.23891434	         -1.51773818	
          0.53600000	         -0.13843353	         10.24994281	         -1.48476104	
          0.54200000	         -0.12802043	         10.26155567	         -1.43883686	
          0.54800000	         -0.12018683	         10.27345501	         -1.38115994	
          0.55400000	         -0.11553698	         10.28549777	         -1.31284686	
          0.56000000	         -0.11488776	         10.29746303	         -1.23494871	
          0.56600000	         -0.11912051	         10.30922566	         -1.14848469	
          0.57200000	         -0.12907497	         10.32072451	         -1.05444639	
          0.57800000	         -0.14556296	         10.33190002	         -0.95384524	
          0.58400000	         -0.16928919	         10.34276640	         -0.84771590	
          0.59000000	         -0.20080080	         10.35336109	         -0.73707976	
          0.59600000	         -0.24058153	         10.36375449	         -0.62302743	
          0.60200000	         -0.28879804	         10.37406384	         -0.50657582	
          0.60800000	         -0.34551956	         10.38442312	         -0.38871696	
          0.61400000	         -0.41057525	         10.39499275	         -0.27037158	
          0.62000000	         -0.48358087	         10.40594800	         -0.15238076	
          0.62600000	         -0.56401543	         10.41746515	         -0.03555397	
          0.63200000	         -0.65113782	         10.42972207	          0.07936888	
          0.63800000	         -0.74411662	         10.44287855	          0.19164314	
          0.64400000	         -0.84201610	         10.45707811	          0.30054170	
          0.65000000	         -0.94387835	         10.47243302	          0.40532915	
          0.65600000	         -1.04864412	         10.48904003	          0.50533719	
          0.66200000	         -1.15533439	         10.50696057	          0.59988998	
          0.66800000	         -1.26290654	         10.52623869	          0.68840085	
          0.67400000	         -1.37035697	         10.54689814	          0.77033718	
          0.68000000	         -1.47672556	         10.56893801	          0.84522767	
          0.68600000	         -1.58103333	         10.59234571	          0.91273407	
          0.69200000	         -1.68243319	         10.61709668	          0.97262088	
          0.69800000	         -1.78008801	         10.64314919	          1.02472359	
          0.70400000	         -1.87327182	         10.67045251	          1.06899680	
          0.71000000	         -1.96139962	         10.69894317	          1.10545877	
          0.71600000	         -2.04390955	         10.72854475	          1.13428558	
          0.72200000	         -2.12052446	         10.75917927	          1.15577577	
          0.72800000	         -2.19101507	         10.79074874	          1.17027242	
          0.73400000	         -2.25535820	         10.82314418	          1.17822653	
          0.74000000	         -2.31369895	         10.85624717	          1.18014066	
          0.74600000	         -2.36626907	         10.88992168	          1.17660823	
          0.75200000	         -2.41353248	         10.92403104	          1.16834964	
          0.75800000	         -2.45601118	         10.95841679	          1.15606039	
          0.76400000	         -2.49437787	         10.99293031	          1.14053254	
          0.77000000	         -2.52937680	         11.02742676	          1.12262654	
          0.77600000	         -2.56180904	         11.06176675	          1.10326177	
          0.78200000	         -2.59251648	         11.09585891	          1.08353185	
          0.78800000	         -2.62232402	         11.12961183	          1.06442949	
          0.79400000	         -2.65208037	         11.16298703	          1.04693505	
          0.80000000	         -2.68253898	         11.19598144	          1.03196111	
          0.80600000	         -2.71438723	         11.22861638	          1.02027040	
          0.81200000	         -2.74817219	         11.26098292	          1.01251195	
          0.81800000	         -2.78428218	         11.29318091	          1.00909216	
          0.82400000	         -2.82295281	         11.32535021	          1.01019571	
          0.83000000	         -2.86421952	         11.35764978	          1.01579094	
          0.83600000	         -2.90796608	         11.39024808	          1.02565207	
          0.84200000	         -2.95383905	         11.42331212	          1.03939557	
          0.84800000	         -3.00137109	         11.45700430	          1.05656096	
          0.85400000	         -3.04994755	         11.49146584	          1.07664537	
          0.86000000	         -3.09885526	         11.52680741	          1.09916050	
          0.86600000	         -3.14736945	         11.56312037	          1.12365600	
          0.87200000	         -3.19471674	         11.60043815	          1.14978612	
          0.87800000	         -3.24019026	         11.63876849	          1.17729627	
          0.88400000	         -3.28313854	         11.67808030	          1.20607634	
          0.89000000	         -3.32299624	         11.71830451	          1.23616375	
          0.89600000	         -3.35930881	         11.75935916	          1.26774322	
          0.90200000	         -3.39172602	         11.80112682	          1.30120567	
          0.90800000	         -3.42001621	         11.84348797	          1.33705188	
          0.91400000	         -3.44406255	         11.88632388	          1.37594933	
          0.92000000	         -3.46384637	         11.92952385	          1.41870501	
          0.92600000	         -3.47943660	         11.97300008	          1.46622233	
          0.93200000	         -3.49098536	         12.01668548	          1.51947577	
          0.93800000	         -3.49869126	         12.06053842	          1.57930731	
          0.94400000	         -3.50277710	         12.10454327	          1.64633618	
          0.95000000	         -3.50342394	         12.14870045	          1.72083190	
          0.95600000	         -3.50072499	         12.19302327	          1.80260778	
          0.96200000	         -3.49466914	         12.23751528	          1.89087885	
          0.96800000	         -3.48505359	         12.28217247	          1.98445637	
          0.97400000	         -3.47146416	         12.32695684	          2.08168275	
          0.98000000	         -3.45332285	         12.37178587	          2.18056828	
          0.98600000	         -3.42984692	         12.41653022	          2.27899231	
          0.99200000	         -3.40026084	         12.46098860	          2.37468933	
          0.99800000	         -3.36369659	         12.50490846	          2.46578370	
          1.00400000	         -3.31931853	         12.54797647	          2.55081864	
          1.01000000	         -3.26643618	         12.58982654	          2.62887281	
          1.01600000	         -3.20448650	         12.63006523	          2.69959443	
          1.02200000	         -3.13316270	         12.66825793	          2.76318751	
          1.02800000	         -3.05235223	         12.70397020	          2.82020304	
          1.03400000	         -2.96215658	         12.73676401	          2.87146519	
          1.04000000	         -2.86283399	         12.76621213	          2.91794083	
          1.04600000	         -2.75477910	         12.79191098	          2.96061923	
          1.05200000	         -2.63841869	         12.81347271	          3.00054937	
          1.05800000	         -2.51423115	         12.83053971	          3.03863452	
          1.06400000	         -2.38268736	         12.84277472	          3.07565837	
          1.07000000	         -2.24420297	         12.84986049	          3.11226653	
          1.07600000	         -2.09918140	         12.85150104	          3.14894531	
          1.08200000	         -1.94790501	         12.84740851	          3.18611036	
          1.08800000	         -1.79065128	         12.83731010	          3.22405239	
          1.09400000	         -1.62765515	         12.82094084	          3.26302438	
          1.10000000	         -1.45912631	         12.79803816	          3.30330153	
          1.10600000	         -1.28531195	         12.76836635	          3.34521767	
          1.11200000	         -1.10644162	         12.73168042	          3.38927270	
          1.11800000	         -0.92282691	         12.68777287	          3.43605343	
          1.12400000	         -0.73482952	         12.63645681	          3.48626590	
          1.13000000	         -0.54286604	         12.57757252	          3.54070724	
          1.13600000	         -0.34741840	         12.51101239	          3.60020860	
          1.14200000	         -0.14899092	         12.43668366	          3.66563208	
          1.14800000	          0.05186345	         12.35454490	          3.73773230	
          1.15400000	          0.25457426	         12.26458006	          3.81711093	
          1.16000000	          0.45857242	         12.16679764	          3.90415836	
          1.16600000	          0.66329238	         12.06122852	          3.99901918	
          1.17200000	          0.86820479	         11.94791148	          4.10156546	
          1.17800000	          1.07282723	         11.82689626	          4.21144121	
          1.18400000	          1.27674577	         11.69823846	          4.32807693	
          1.19000000	          1.47962280	         11.56199799	          4.45073023	
          1.19600000	          1.68118466	         11.41823706	          4.57854132	
          1.20200000	          1.88121117	         11.26701929	          4.71053345	
          1.20800000	          2.07952966	         11.10841248	          4.84574812	
          1.21400000	          2.27599145	         10.94249481	          4.98326443	
          1.22000000	          2.47045660	         10.76935076	          5.12225367	
          1.22600000	          2.66276867	         10.58908937	          5.26201890	
          1.23200000	          2.85270544	         10.40181970	          5.40198821	
          1.23800000	          3.04000527	         10.20768346	          5.54172694	
          1.24400000	          3.22435707	         10.00684254	          5.68090928	
          1.25000000	          3.40540556	          9.79948008	          5.81928295	
          1.25600000	          3.58278415	          9.58581654	          5.95662978	
          1.26200000	          3.75610497	          9.36608114	          6.09273399	
          1.26800000	          3.92501264	          9.14053938	          6.22734900	
          1.27400000	          4.08919325	          8.90947814	          6.36017947	
